<svg xmlns="http://www.w3.org/2000/svg" viewBox="0 0 320 200" width="320" height="200" role="img" aria-labelledby="ttl"><title id="ttl">Sơ đồ nhìn từ trên xuống: khoảng trống ba giây giữa hai xe trên làn chính.</title><defs><marker id="tip" viewBox="0 0 10 10" refX="8" refY="5" markerWidth="5" markerHeight="5" orient="auto-start-reverse"><path d="M0 1L9 5L0 9Z" fill="#b7f36b"/></marker></defs><rect x="0" y="0" width="320" height="200" rx="0" fill="#22332e"/><rect x="0" y="0" width="320" height="180" rx="0" fill="#1a2622"/><rect x="0" y="30" width="320" height="114" rx="0" fill="#2c403a"/><path d="M0 68L320 68" stroke="#c8dbd1" stroke-width="1.8" stroke-dasharray="14 12" stroke-linecap="round"/><path d="M0 106L320 106" stroke="#c8dbd1" stroke-width="1.8" stroke-dasharray="14 12" stroke-linecap="round"/><path d="M0 30L320 30" stroke="#c8dbd1" stroke-width="2.4" stroke-linecap="round"/><path d="M0 144L320 144" stroke="#c8dbd1" stroke-width="2.4" stroke-linecap="round"/><g transform="translate(140 98) rotate(90)"><rect x="-13" y="-23" width="26" height="46" rx="6" fill="#b7f36b"/><rect x="-9" y="-17" width="18" height="9.2" rx="2" fill="#0e1715" opacity=".45"/><rect x="-9" y="10" width="18" height="7.4" rx="2" fill="#0e1715" opacity=".25"/></g><g transform="translate(252 98) rotate(90)"><rect x="-13" y="-23" width="26" height="46" rx="6" fill="#7e978c"/><rect x="-9" y="-17" width="18" height="9.2" rx="2" fill="#0e1715" opacity=".45"/><rect x="-9" y="10" width="18" height="7.4" rx="2" fill="#0e1715" opacity=".25"/></g><g transform="translate(50 98) rotate(90)"><rect x="-13" y="-23" width="26" height="46" rx="6" fill="#7e978c"/><rect x="-9" y="-17" width="18" height="9.2" rx="2" fill="#0e1715" opacity=".45"/><rect x="-9" y="10" width="18" height="7.4" rx="2" fill="#0e1715" opacity=".25"/></g><path d="M166 82L228 82" stroke="#b7f36b" stroke-width="1.6" stroke-dasharray="3 3" stroke-linecap="round"/><path d="M166 78L166 86" stroke="#b7f36b" stroke-width="1.6" stroke-linecap="round"/><path d="M228 78L228 86" stroke="#b7f36b" stroke-width="1.6" stroke-linecap="round"/><text x="197" y="75" font-family="DM Mono, ui-monospace, monospace" font-size="8.5" font-weight="500" fill="#b7f36b" text-anchor="middle">Trống 3 giây</text><rect x="0" y="184" width="320" height="16" rx="0" fill="#1a2622" opacity="0.92"/><text x="16" y="195" font-family="DM Mono, ui-monospace, monospace" font-size="8.8" font-weight="500" fill="#a9bcb3" text-anchor="start">Chỉ chuyển làn khi khoảng trống đủ ba giây.</text></svg>
