<svg xmlns="http://www.w3.org/2000/svg" viewBox="0 0 320 200" width="320" height="200" role="img" aria-labelledby="ttl"><title id="ttl">Sơ đồ nhìn từ trên xuống: hai xe ngược chiều và vị trí chỗ tránh trong hẻm.</title><defs><marker id="tip" viewBox="0 0 10 10" refX="8" refY="5" markerWidth="5" markerHeight="5" orient="auto-start-reverse"><path d="M0 1L9 5L0 9Z" fill="#b7f36b"/></marker></defs><rect x="0" y="0" width="320" height="200" rx="0" fill="#22332e"/><rect x="0" y="0" width="320" height="180" rx="0" fill="#1a2622"/><rect x="104" y="0" width="112" height="180" rx="0" fill="#2c403a"/><path d="M104 0L104 180" stroke="#c8dbd1" stroke-width="2" stroke-linecap="round"/><path d="M216 0L216 180" stroke="#c8dbd1" stroke-width="2" stroke-linecap="round"/><text x="12" y="24" font-family="DM Mono, ui-monospace, monospace" font-size="8" font-weight="500" fill="#a9bcb3" text-anchor="start">NHÀ DÂN</text><text x="308" y="24" font-family="DM Mono, ui-monospace, monospace" font-size="8" font-weight="500" fill="#a9bcb3" text-anchor="end">NHÀ DÂN</text><g transform="translate(140 126) rotate(0)"><rect x="-13" y="-23" width="26" height="46" rx="6" fill="#b7f36b"/><rect x="-9" y="-17" width="18" height="9.2" rx="2" fill="#0e1715" opacity=".45"/><rect x="-9" y="10" width="18" height="7.4" rx="2" fill="#0e1715" opacity=".25"/></g><g transform="translate(182 52) rotate(180)"><rect x="-13" y="-23" width="26" height="46" rx="6" fill="#7e978c"/><rect x="-9" y="-17" width="18" height="9.2" rx="2" fill="#0e1715" opacity=".45"/><rect x="-9" y="10" width="18" height="7.4" rx="2" fill="#0e1715" opacity=".25"/></g><rect x="214" y="92" width="30" height="44" rx="4" fill="#31463f"/><text x="212" y="150" font-family="DM Mono, ui-monospace, monospace" font-size="7.5" font-weight="500" fill="#a9bcb3" text-anchor="start">CHỖ TRÁNH</text><path d="M140 102C140 86 168 86 186 102" fill="none" stroke="#b7f36b" stroke-width="2.4" stroke-dasharray="5 4" stroke-linecap="round" marker-end="url(#tip)"/><rect x="0" y="174" width="320" height="26" rx="0" fill="#1a2622" opacity="0.92"/><text x="16" y="185" font-family="DM Mono, ui-monospace, monospace" font-size="8.8" font-weight="500" fill="#a9bcb3" text-anchor="start">Xe nào gần chỗ tránh hơn thì chủ động lùi vào</text><text x="16" y="195" font-family="DM Mono, ui-monospace, monospace" font-size="8.8" font-weight="500" fill="#a9bcb3" text-anchor="start">nhường.</text></svg>
