<svg xmlns="http://www.w3.org/2000/svg" viewBox="0 0 320 200" width="320" height="200" role="img" aria-labelledby="ttl"><title id="ttl">Sơ đồ nhìn từ trên xuống: xe đỗ gọn trong chỗ tránh để xe ngược chiều đi qua.</title><defs><marker id="tip" viewBox="0 0 10 10" refX="8" refY="5" markerWidth="5" markerHeight="5" orient="auto-start-reverse"><path d="M0 1L9 5L0 9Z" fill="#b7f36b"/></marker></defs><rect x="0" y="0" width="320" height="200" rx="0" fill="#22332e"/><rect x="0" y="0" width="320" height="180" rx="0" fill="#1a2622"/><rect x="104" y="0" width="112" height="180" rx="0" fill="#2c403a"/><path d="M104 0L104 180" stroke="#c8dbd1" stroke-width="2" stroke-linecap="round"/><path d="M216 0L216 180" stroke="#c8dbd1" stroke-width="2" stroke-linecap="round"/><text x="12" y="24" font-family="DM Mono, ui-monospace, monospace" font-size="8" font-weight="500" fill="#a9bcb3" text-anchor="start">NHÀ DÂN</text><text x="308" y="24" font-family="DM Mono, ui-monospace, monospace" font-size="8" font-weight="500" fill="#a9bcb3" text-anchor="end">NHÀ DÂN</text><g transform="translate(226 112) rotate(0)"><rect x="-13" y="-23" width="26" height="46" rx="6" fill="#b7f36b"/><rect x="-9" y="-17" width="18" height="9.2" rx="2" fill="#0e1715" opacity=".45"/><rect x="-9" y="10" width="18" height="7.4" rx="2" fill="#0e1715" opacity=".25"/></g><g transform="translate(150 62) rotate(180)"><rect x="-13" y="-23" width="26" height="46" rx="6" fill="#7e978c"/><rect x="-9" y="-17" width="18" height="9.2" rx="2" fill="#0e1715" opacity=".45"/><rect x="-9" y="10" width="18" height="7.4" rx="2" fill="#0e1715" opacity=".25"/></g><path d="M140 156L214 156" stroke="#b7f36b" stroke-width="1.6" stroke-dasharray="3 3" stroke-linecap="round"/><path d="M140 152L140 160" stroke="#b7f36b" stroke-width="1.6" stroke-linecap="round"/><path d="M214 152L214 160" stroke="#b7f36b" stroke-width="1.6" stroke-linecap="round"/><text x="177" y="149" font-family="DM Mono, ui-monospace, monospace" font-size="8.5" font-weight="500" fill="#b7f36b" text-anchor="middle">Chờ xe kia qua hẳn</text><rect x="0" y="184" width="320" height="16" rx="0" fill="#1a2622" opacity="0.92"/><text x="16" y="195" font-family="DM Mono, ui-monospace, monospace" font-size="8.8" font-weight="500" fill="#a9bcb3" text-anchor="start">Đỗ gọn trong chỗ tránh, bật xi-nhan phải và chờ.</text></svg>
