<svg xmlns="http://www.w3.org/2000/svg" viewBox="0 0 320 200" width="320" height="200" role="img" aria-labelledby="ttl"><title id="ttl">Sơ đồ nhìn từ trên xuống: hướng trôi của xe khi nhả phanh trên dốc.</title><defs><marker id="tip" viewBox="0 0 10 10" refX="8" refY="5" markerWidth="5" markerHeight="5" orient="auto-start-reverse"><path d="M0 1L9 5L0 9Z" fill="#b7f36b"/></marker></defs><rect x="0" y="0" width="320" height="200" rx="0" fill="#22332e"/><rect x="0" y="0" width="320" height="88" rx="0" fill="#1a2622"/><rect x="16" y="16" width="64" height="70" rx="4" fill="#25352f"/><path d="M16 16L16 86" stroke="#c8dbd1" stroke-width="1.6" stroke-dasharray="5 4" stroke-linecap="round"/><path d="M80 16L80 86" stroke="#c8dbd1" stroke-width="1.6" stroke-dasharray="5 4" stroke-linecap="round"/><g transform="translate(48 52) rotate(180)"><rect x="-13" y="-23" width="26" height="46" rx="6" fill="#7e978c"/><rect x="-9" y="-17" width="18" height="9.2" rx="2" fill="#0e1715" opacity=".45"/><rect x="-9" y="10" width="18" height="7.4" rx="2" fill="#0e1715" opacity=".25"/></g><rect x="88" y="16" width="64" height="70" rx="4" fill="#25352f"/><path d="M88 16L88 86" stroke="#c8dbd1" stroke-width="1.6" stroke-dasharray="5 4" stroke-linecap="round"/><path d="M152 16L152 86" stroke="#c8dbd1" stroke-width="1.6" stroke-dasharray="5 4" stroke-linecap="round"/><g transform="translate(120 52) rotate(180)"><rect x="-13" y="-23" width="26" height="46" rx="6" fill="#7e978c"/><rect x="-9" y="-17" width="18" height="9.2" rx="2" fill="#0e1715" opacity=".45"/><rect x="-9" y="10" width="18" height="7.4" rx="2" fill="#0e1715" opacity=".25"/></g><rect x="160" y="16" width="64" height="70" rx="4" fill="#31463f"/><path d="M160 16L160 86" stroke="#c8dbd1" stroke-width="1.6" stroke-dasharray="5 4" stroke-linecap="round"/><path d="M224 16L224 86" stroke="#c8dbd1" stroke-width="1.6" stroke-dasharray="5 4" stroke-linecap="round"/><rect x="232" y="16" width="64" height="70" rx="4" fill="#25352f"/><path d="M232 16L232 86" stroke="#c8dbd1" stroke-width="1.6" stroke-dasharray="5 4" stroke-linecap="round"/><path d="M296 16L296 86" stroke="#c8dbd1" stroke-width="1.6" stroke-dasharray="5 4" stroke-linecap="round"/><g transform="translate(264 52) rotate(180)"><rect x="-13" y="-23" width="26" height="46" rx="6" fill="#7e978c"/><rect x="-9" y="-17" width="18" height="9.2" rx="2" fill="#0e1715" opacity=".45"/><rect x="-9" y="10" width="18" height="7.4" rx="2" fill="#0e1715" opacity=".25"/></g><rect x="0" y="88" width="320" height="92" rx="0" fill="#2c403a"/><path d="M0 88L320 88" stroke="#c8dbd1" stroke-width="1.6" stroke-linecap="round"/><g transform="translate(200 78) rotate(180)"><rect x="-13" y="-23" width="26" height="46" rx="6" fill="#b7f36b"/><rect x="-9" y="-17" width="18" height="9.2" rx="2" fill="#0e1715" opacity=".45"/><rect x="-9" y="10" width="18" height="7.4" rx="2" fill="#0e1715" opacity=".25"/></g><path d="M200 108L200 140" stroke="#ff8a6b" stroke-width="2.4" stroke-dasharray="4 4" fill="none" marker-end="url(#tip)"/><g><rect x="108" y="156" width="129.6" height="16" rx="8" fill="#b7f36b" opacity=".16"/><text x="114" y="167.5" font-family="DM Mono, ui-monospace, monospace" font-size="8.5" font-weight="500" fill="#b7f36b" text-anchor="start">Xe trôi khi nhả phanh</text></g><rect x="0" y="174" width="320" height="26" rx="0" fill="#1a2622" opacity="0.92"/><text x="16" y="185" font-family="DM Mono, ui-monospace, monospace" font-size="8.8" font-weight="500" fill="#a9bcb3" text-anchor="start">Về P và kéo phanh tay ngay khi xe đứng hẳn trong</text><text x="16" y="195" font-family="DM Mono, ui-monospace, monospace" font-size="8.8" font-weight="500" fill="#a9bcb3" text-anchor="start">ô.</text></svg>
